<?xml version="1.0" standalone="no"?>
<!DOCTYPE svg PUBLIC "-//W3C//DTD SVG 20010904//EN"
 "http://www.w3.org/TR/2001/REC-SVG-20010904/DTD/svg10.dtd">
<svg version="1.0" xmlns="http://www.w3.org/2000/svg"
 width="115.000000pt" height="120.000000pt" viewBox="0 0 115.000000 120.000000"
 preserveAspectRatio="xMidYMid meet">

<g transform="translate(0.000000,120.000000) scale(0.100000,-0.100000)"
fill="#000000" stroke="none">
<path d="M390 1126 c-119 -40 -157 -60 -165 -86 -3 -11 -13 -20 -22 -20 -9 0
-27 -12 -40 -27 -35 -41 -103 -156 -103 -177 0 -9 -5 -26 -10 -37 -6 -11 -15
-55 -20 -99 -9 -77 -6 -115 9 -106 3 2 5 -14 3 -36 -4 -39 9 -98 31 -147 14
-28 87 -101 103 -101 19 0 44 -36 44 -63 l0 -27 -50 27 c-28 16 -60 32 -70 38
-11 5 -20 14 -20 19 0 5 -14 31 -30 58 -17 27 -30 62 -30 81 0 17 -5 39 -11
47 -7 11 -9 -4 -7 -55 3 -53 11 -85 32 -129 34 -69 91 -136 116 -136 10 0 23
-7 30 -15 7 -8 20 -15 29 -15 20 0 71 -43 71 -59 0 -18 50 -61 71 -61 14 0 19
12 24 63 8 75 -11 445 -26 501 -6 21 -11 67 -12 101 -1 35 -5 61 -9 58 -7 -4
-12 31 -12 95 0 12 -5 22 -12 22 -22 0 -64 -42 -64 -63 0 -31 -8 -39 -65 -67
-27 -14 -62 -38 -77 -55 l-27 -30 -1 66 c0 54 4 69 20 84 12 10 18 25 16 32
-3 7 -1 13 4 13 5 0 11 8 14 18 4 9 29 42 56 72 27 30 50 61 50 68 0 6 6 12
14 12 8 0 16 7 20 15 3 8 11 14 18 13 7 -2 12 4 13 12 0 8 14 19 30 24 48 14
75 28 70 37 -3 4 4 5 15 2 11 -3 20 -1 20 3 0 5 25 7 55 6 35 -3 55 0 55 7 0
7 21 11 51 11 33 0 48 -4 44 -11 -5 -7 11 -10 50 -8 39 2 59 -1 65 -11 5 -9
19 -11 41 -6 22 4 29 3 20 -3 -11 -7 -3 -14 30 -30 24 -11 60 -39 79 -62 19
-23 42 -49 51 -58 53 -51 109 -181 109 -253 0 -20 5 -40 10 -43 6 -3 10 -11
10 -18 0 -6 -17 7 -38 29 -21 21 -59 50 -85 64 -28 15 -51 36 -58 52 -17 42
-55 78 -82 78 -58 0 -87 -175 -87 -518 0 -236 8 -308 37 -319 27 -10 79 26 98
66 15 33 29 46 89 75 58 29 77 46 106 88 47 72 64 107 55 116 -4 4 -10 0 -13
-8 -11 -31 -99 -114 -140 -131 -54 -23 -62 -24 -63 -1 0 9 -6 3 -12 -15 -7
-18 -20 -42 -29 -53 -18 -20 -48 -27 -48 -11 0 22 25 75 46 98 13 14 30 44 37
67 l12 41 5 -42 5 -41 54 22 c53 23 111 76 111 102 0 8 3 14 8 14 43 1 46 397
2 430 -4 3 -20 31 -36 63 -53 107 -203 238 -255 224 -12 -3 -17 -1 -12 6 4 6
-2 8 -15 5 -12 -4 -20 -2 -17 2 8 12 -31 23 -55 15 -14 -4 -20 -2 -18 7 2 10
-22 13 -107 15 -101 2 -118 -1 -205 -31z m87 8 c-3 -3 -12 -4 -19 -1 -8 3 -5
6 6 6 11 1 17 -2 13 -5z m-121 -56 c-10 -6 -20 -7 -24 -3 -9 8 20 25 31 18 5
-3 2 -10 -7 -15z m561 -54 c-4 -4 -16 1 -27 11 -11 10 -18 20 -15 23 3 3 0 12
-7 21 -6 9 3 2 22 -16 19 -18 31 -35 27 -39z m-53 -239 c-4 -8 -8 -15 -10 -15
-2 0 -4 7 -4 15 0 8 4 15 10 15 5 0 7 -7 4 -15z m23 -137 c-2 -18 -4 -6 -4 27
0 33 2 48 4 33 2 -15 2 -42 0 -60z m-20 25 c-3 -10 -5 -4 -5 12 0 17 2 24 5
18 2 -7 2 -21 0 -30z m98 -34 c9 -17 15 -33 13 -35 -3 -2 -12 12 -21 31 -21
43 -13 47 8 4z m-648 -1 c-3 -8 -6 -5 -6 6 -1 11 2 17 5 13 3 -3 4 -12 1 -19z
m2 -50 c0 -28 -2 -30 -9 -13 -12 28 -12 45 0 45 6 0 10 -15 9 -32z m628 0 c-3
-8 -6 -5 -6 6 -1 11 2 17 5 13 3 -3 4 -12 1 -19z m-70 -30 c-3 -8 -6 -5 -6 6
-1 11 2 17 5 13 3 -3 4 -12 1 -19z m-110 -300 c-2 -29 -3 -6 -3 52 0 58 1 81
3 53 2 -29 2 -77 0 -105z m-414 125 c-7 -2 -13 -12 -13 -20 0 -9 -3 -14 -6
-10 -10 10 4 37 18 36 10 0 10 -2 1 -6z m4 -155 c-3 -8 -6 -5 -6 6 -1 11 2 17
5 13 3 -3 4 -12 1 -19z m420 -70 c-3 -7 -5 -2 -5 12 0 14 2 19 5 13 2 -7 2
-19 0 -25z"/>
</g>
</svg>
